<svg xmlns="http://www.w3.org/2000/svg" viewBox="0 0 73.28 73.02"><defs><style>.cls-1{fill:#015492;}.cls-2{fill:#049bd8;}</style></defs><title>Asset 1</title><g id="Layer_2" data-name="Layer 2"><g id="Layer_1-2" data-name="Layer 1"><polygon class="cls-1" points="2.74 18.5 0 18.5 0 57.86 30.27 57.86 30.27 55.12 2.74 55.12 2.74 18.5"/><polygon class="cls-1" points="70.54 18.5 70.54 55.12 43.02 55.12 43.02 57.86 73.28 57.86 73.28 18.5 70.54 18.5"/><path class="cls-1" d="M67.45,52V11.77H46a10.54,10.54,0,0,0-9.39,5.79,10.54,10.54,0,0,0-9.38-5.79H5.83V52H27.26a8.26,8.26,0,0,1,8.24,8.25h2.28A8.27,8.27,0,0,1,46,52ZM35.5,53.75a10.51,10.51,0,0,0-8.24-4H8.1V14.05H27.26A8.26,8.26,0,0,1,35.5,22.3Zm2.28,0V22.3A8.27,8.27,0,0,1,46,14.05H65.18V49.76H46A10.52,10.52,0,0,0,37.78,53.75Z"/><path class="cls-2" d="M17.12,8.61l-1.41-2a36.45,36.45,0,0,1,41.86,0l-1.41,2a34,34,0,0,0-39,0Z"/><path class="cls-2" d="M36.64,73A36.66,36.66,0,0,1,9.81,61.25l1.8-1.66a34,34,0,0,0,48,2c.7-.65,1.38-1.32,2-2l1.8,1.66A36.66,36.66,0,0,1,36.64,73Z"/></g></g></svg>