<svg id="Layer_1" data-name="Layer 1" xmlns="http://www.w3.org/2000/svg" viewBox="0 0 73.03 84.77"><title>Algo_Trading</title><g id="Layer_2" data-name="Layer 2"><g id="Layer_1-2" data-name="Layer 1-2"><path d="M53.33,10.66a36.34,36.34,0,0,0-13.82-4V9.12a33.92,33.92,0,0,1,13.82,4.32Z" transform="translate(0 -0.1)" fill="#099dd9"></path><path d="M53.33,72.66A33.75,33.75,0,0,1,39.51,77v2.45a36.34,36.34,0,0,0,13.82-4Z" transform="translate(0 -0.1)" fill="#099dd9"></path><path d="M59.33,14.58v3.2a34,34,0,0,1,2.52,48,35.24,35.24,0,0,1-2.52,2.52v3.2a36.43,36.43,0,0,0,0-56.94Z" transform="translate(0 -0.1)" fill="#099dd9"></path><path d="M19.7,75.43a36.34,36.34,0,0,0,13.81,4V77A33.75,33.75,0,0,1,19.7,72.66Z" transform="translate(0 -0.1)" fill="#099dd9"></path><path d="M2.45,43.05A33.92,33.92,0,0,1,13.7,17.78v-3.2a36.43,36.43,0,0,0,0,56.94v-3.2A34,34,0,0,1,2.45,43.05Z" transform="translate(0 -0.1)" fill="#099dd9"></path><path d="M19.7,10.66v2.78A33.88,33.88,0,0,1,33.51,9.12V6.67A36.33,36.33,0,0,0,19.7,10.66Z" transform="translate(0 -0.1)" fill="#099dd9"></path><path d="M60.72,25.16H57.55V6.23H55.11V25.16H51.94a1.77,1.77,0,0,0-1.75,1.75V42.49a1.75,1.75,0,0,0,1.75,1.75h3.17V79.87h2.44V44.24h3.17a1.75,1.75,0,0,0,1.75-1.75V26.91A1.77,1.77,0,0,0,60.72,25.16ZM60,41.8H52.64V27.61H60Z" transform="translate(0 -0.1)" fill="#045594"></path><path d="M21.09,34.14H17.92V6.23H15.47V34.14H12.31a1.75,1.75,0,0,0-1.75,1.75V60a1.75,1.75,0,0,0,1.75,1.75h3.16V79.87h2.45V61.74h3.17A1.76,1.76,0,0,0,22.84,60V35.89A1.75,1.75,0,0,0,21.09,34.14Zm-.7,25.15H13V36.58h7.39Z" transform="translate(0 -0.1)" fill="#045594"></path><path d="M40.9,19.91H37.74V1.22a1.23,1.23,0,0,0-2.45,0V19.91H32.12a1.77,1.77,0,0,0-1.75,1.75V64.43a1.76,1.76,0,0,0,1.75,1.76h3.17V84.87h2.45V66.19H40.9a1.75,1.75,0,0,0,1.75-1.75h0V21.66A1.75,1.75,0,0,0,40.9,19.91Zm-.69,43.83H32.82V22.36h7.39Z" transform="translate(0 -0.1)" fill="#045594"></path></g></g></svg>
