<svg xmlns="http://www.w3.org/2000/svg" viewBox="0 0 386.5 81.62"><defs><style>.cls-1{fill:#143366;}</style></defs><title>Asset 1</title><g id="Layer_2" data-name="Layer 2"><g id="Layer_1-2" data-name="Layer 1"><g id="Group-3"><path id="Fill-1" class="cls-1" d="M98.83,61.74l5.78-7.09c5.24,4.67,10.48,7.33,17.28,7.33,5.93,0,9.69-2.82,9.69-7.09v-.16c0-4-2.19-6.21-12.35-8.63C107.58,43.2,101,39.65,101,29.25v-.16c0-9.67,7.81-16.36,18.68-16.36a29.78,29.78,0,0,1,19.85,7.09l-5.16,7.5c-4.92-3.79-9.85-5.8-14.85-5.8-5.63,0-8.91,3-8.91,6.69v.16c0,4.35,2.5,6.28,13,8.86,11.57,2.91,17.59,7.18,17.59,16.53v.16c0,10.56-8,16.85-19.54,16.85a33.12,33.12,0,0,1-22.82-9"/><polygon id="Fill-2" class="cls-1" points="151.78 70.77 160.6 70.77 160.6 14.54 151.78 14.54 151.78 70.77"/><path id="Fill-3" class="cls-1" d="M171.19,41.91v-.16c0-15.71,11.72-29,28.21-29,9.53,0,15.39,2.72,21,7.61l-6.1,7.46c-4.22-3.69-8.36-6-15.31-6-10.08,0-17.74,9.06-17.74,19.8v.16c0,11.54,7.42,20,18.6,20a21.9,21.9,0,0,0,13.2-4.25V47h-14V38.46h23.28V62a34.38,34.38,0,0,1-22.82,8.74c-17.11,0-28.36-12.51-28.36-28.86"/><path id="Fill-4" class="cls-1" d="M281.18,41.91v-.16c0-12.75-9.17-23.17-21.83-23.17s-21.67,10.26-21.67,23v.16c0,12.74,9.17,23.17,21.83,23.17s21.67-10.26,21.67-23m-50,0v-.16c0-15.47,11.47-29,28.32-29s28.16,13.39,28.16,28.86v.16c0,15.47-11.47,29-28.32,29s-28.16-13.39-28.16-28.86"/><path id="Fill-5" class="cls-1" d="M317.78,45.15c9,0,14.87-5,14.87-12.37v-.17c0-8-5.81-12.2-14.56-12.2H304.38V45.15ZM298.26,14.54h20.29c12.24,0,20.3,6.75,20.3,17.83v.16c0,12.13-9.76,18.4-21.3,18.4H304.38V70.77h-6.12Z"/><polygon id="Fill-6" class="cls-1" points="362.24 20.41 344.14 20.41 344.14 14.54 386.5 14.54 386.5 20.41 368.4 20.41 368.4 70.77 362.24 70.77 362.24 20.41"/></g><path class="cls-1" d="M0,0V81.62H79.42V0ZM64.16,27.38H59.28L55.62,21.1H33.11L44.46,40.58l-11,19.15H56l3.49-6.08H64.2V68.72h-49L31.56,40.58l-16.35-28H64.16Z"/></g></g></svg>